# xmcd
#
# Track frame offsets:
#	150
#	13288
#	40737
#	73418
#	108714
#	128928
#	152507
#	179030
#
# Disc length: 2563 seconds
#
# Revision: 0
# Processed by: cddbd v1.5.2PL0 Copyright (c) Steve Scherf et al.
# Submitted via: dBpowerAMP V4.0
#
DISCID=750a0108
DTITLE=Ray Schinnery - Everybody's Blues
DYEAR=1900
DGENRE=Blues
TTITLE0=The Welcome Song
TTITLE1=If That Ain't The Blues
TTITLE2=Drinking Again
TTITLE3=Medley (Mister/Stepping Out)
TTITLE4=Do What You Did To Me/Heavy Women Excite Me
TTITLE5=Ghosts
TTITLE6=Teach Me Tonite
TTITLE7=Rock Me Baby - Finale
EXTD=
EXTT0=
EXTT1=
EXTT2=
EXTT3=
EXTT4=
EXTT5=
EXTT6=
EXTT7=
PLAYORDER=
